<?xml version="1.0" encoding="UTF-8" standalone="no"?>
<!-- Created with Inkscape (http://www.inkscape.org/) -->

<svg
   width="13440"
   height="1080"
   viewBox="0 0 3556 285.75"
   version="1.1"
   id="svg5"
   sodipodi:docname="background.svg"
   inkscape:version="1.1 (c68e22c387, 2021-05-23)"
   xmlns:inkscape="http://www.inkscape.org/namespaces/inkscape"
   xmlns:sodipodi="http://sodipodi.sourceforge.net/DTD/sodipodi-0.dtd"
   xmlns="http://www.w3.org/2000/svg"
   xmlns:svg="http://www.w3.org/2000/svg">
  <sodipodi:namedview
     id="namedview9"
     pagecolor="#505050"
     bordercolor="#eeeeee"
     borderopacity="1"
     inkscape:pageshadow="0"
     inkscape:pageopacity="0"
     inkscape:pagecheckerboard="0"
     showgrid="true"
     inkscape:zoom="0.50000002"
     inkscape:cx="1112.6482"
     inkscape:cy="559.97847"
     inkscape:window-width="1920"
     inkscape:window-height="1051"
     inkscape:window-x="-9"
     inkscape:window-y="-9"
     inkscape:window-maximized="1"
     inkscape:current-layer="layer4"
     width="3840px"
     inkscape:rotation="-4">
    <inkscape:grid
       type="xygrid"
       id="grid31897" />
  </sodipodi:namedview>
  <defs
     id="defs2">
    <rect
       x="994.04303"
       y="620.07349"
       width="141.19508"
       height="76.274963"
       id="rect29129" />
    <rect
       x="988.36554"
       y="621.06091"
       width="627.97253"
       height="305.09985"
       id="rect13119" />
  </defs>
  <g
     id="layer2" />
  <text
     xml:space="preserve"
     style="font-style:normal;font-variant:normal;font-weight:bold;font-stretch:normal;font-size:10.5833px;line-height:1.25;font-family:'Tempus Sans ITC';-inkscape-font-specification:'Tempus Sans ITC Bold';stroke-width:0.264583"
     x="148.16667"
     y="444.5"
     id="text45641"><tspan
       sodipodi:role="line"
       id="tspan45639"
       style="font-style:normal;font-variant:normal;font-weight:bold;font-stretch:normal;font-family:'Tempus Sans ITC';-inkscape-font-specification:'Tempus Sans ITC Bold';stroke-width:0.264583"
       x="148.16667"
       y="444.5" /></text>
  <g
     inkscape:groupmode="layer"
     id="layer3"
     inkscape:label="Layer 1">
    <path
       style="fill:#0072b2;fill-opacity:1;stroke:#0072b2;stroke-width:0.313059px;stroke-linecap:butt;stroke-linejoin:miter;stroke-opacity:1"
       d="M 0,0 C 3556,0 3556,0 3556,0 V 285.75 H 0 Z"
       id="path9954" />
  </g>
  <g
     inkscape:groupmode="layer"
     id="layer4"
     inkscape:label="Layer 2"
     style="display:inline">
    <g
       id="layer1">
      <path
         style="fill:#0072b2;fill-opacity:1;stroke:#0072b2;stroke-width:0.264583px;stroke-linecap:butt;stroke-linejoin:miter;stroke-opacity:1"
         d="M 111.125,0 193.675,167.74583 534.45833,0 Z"
         id="path5372" />
      <path
         style="fill:#000000;stroke:#000000;stroke-width:0.264583px;stroke-linecap:butt;stroke-linejoin:miter;stroke-opacity:1"
         d="M 251.35416,285.75 C 111.125,0 111.125,0 111.125,0 H 0 v 285.75 z"
         id="path15008" />
      <path
         style="fill:#e54875;fill-opacity:1;stroke:none;stroke-width:0.264583px;stroke-linecap:butt;stroke-linejoin:miter;stroke-opacity:1"
         d="M 251.35416,285.75 C 246.0625,275.16666 246.0625,275.16666 246.0625,275.16666 L 804.33332,0 v 285.75 z"
         id="path15175" />
    </g>
    <path
       style="fill:#000000;stroke:#000000;stroke-width:0.264583px;stroke-linecap:butt;stroke-linejoin:miter;stroke-opacity:1"
       d="M 193.675,167.74583 246.06249,275.16666 804.33331,5e-6 H 534.45832 L 193.675,167.74583"
       id="path1031" />
    <g
       aria-label="BORIS"
       transform="rotate(-26.58054)"
       id="text3686"
       style="font-weight:bold;font-size:108.495px;line-height:1.25;font-family:'Roboto Condensed';-inkscape-font-specification:'Roboto Condensed,  Bold';fill:#0072b2;stroke:#0072b2;stroke-width:2.71238">
      <path
         d="M 99.533063,321.60541 V 244.47224 H 123.3723 q 12.07854,0 18.32972,5.40356 6.30415,5.35059 6.30415,15.7339 0,5.88034 -2.59583,10.11843 -2.59582,4.23808 -7.09879,6.1982 5.19166,1.48333 7.99939,5.98629 2.80773,4.44999 2.80773,11.01903 0,11.23093 -6.1982,16.95234 -6.14523,5.72142 -17.85294,5.72142 z m 15.574967,-33.53386 v 20.6077 h 9.9595 q 4.18511,0 6.35713,-2.59583 2.17202,-2.59583 2.17202,-7.36368 0,-10.38331 -7.5226,-10.64819 z m 0,-11.33688 h 8.10534 q 9.16486,0 9.16486,-9.48272 0,-5.24463 -2.11904,-7.5226 -2.11905,-2.27797 -6.88689,-2.27797 h -8.26427 z"
         id="path1017" />
      <path
         d="m 214.70305,289.97869 q 0,15.52199 -7.36367,24.10411 -7.3107,8.58213 -20.34282,8.58213 -12.97914,0 -20.39579,-8.47617 -7.41665,-8.52915 -7.5226,-23.83924 v -13.19104 q 0,-15.89282 7.36368,-24.7928 7.36367,-8.95296 20.44876,-8.95296 12.87319,0 20.28984,8.79403 7.41665,8.74105 7.5226,24.5809 z m -15.62794,-12.92616 q 0,-10.43629 -2.96666,-15.52199 -2.96666,-5.08571 -9.21784,-5.08571 -6.1982,0 -9.16486,4.92678 -2.96666,4.8738 -3.07261,14.88628 v 13.7208 q 0,10.11843 3.01963,14.93925 3.01964,4.76785 9.32379,4.76785 6.09225,0 9.05891,-4.66189 2.96666,-4.71487 3.01964,-14.56842 z"
         id="path1019" />
      <path
         d="m 249.24346,293.42214 h -7.73451 v 28.18327 h -15.57497 v -77.13317 h 24.84578 q 11.70772,0 18.06485,6.09225 6.4101,6.03927 6.4101,17.21722 0,15.36307 -11.17795,21.50829 l 13.5089,31.57374 v 0.74167 H 260.84522 Z M 241.50895,280.443 h 8.84701 q 4.66189,0 6.99284,-3.07262 2.33094,-3.12558 2.33094,-8.31724 0,-11.60176 -9.0589,-11.60176 h -9.11189 z"
         id="path1021" />
      <path
         d="m 302.21954,321.60541 h -15.57497 v -77.13317 h 15.57497 z"
         id="path1023" />
      <path
         d="m 347.88491,301.36855 q 0,-4.71487 -2.4369,-7.0988 -2.38392,-2.4369 -8.74105,-5.03272 -11.60176,-4.39702 -16.68747,-10.27736 -5.0857,-5.93332 -5.0857,-13.98569 0,-9.74759 6.88689,-15.62794 6.93987,-5.93332 17.58806,-5.93332 7.09879,0 12.66128,3.01964 5.56249,2.96666 8.52915,8.42319 3.01963,5.45654 3.01963,12.3964 h -15.52199 q 0,-5.40356 -2.33094,-8.21129 -2.27797,-2.86071 -6.62201,-2.86071 -4.07916,0 -6.35713,2.4369 -2.27797,2.38393 -2.27797,6.46309 0,3.17856 2.54285,5.77439 2.54285,2.54285 9.00593,5.2976 11.28391,4.07916 16.36961,10.01248 5.13868,5.93332 5.13868,15.09818 0,10.06546 -6.41011,15.7339 -6.4101,5.66844 -17.42913,5.66844 -7.46962,0 -13.61485,-3.07261 -6.14522,-3.07262 -9.64164,-8.79403 -3.44345,-5.72142 -3.44345,-13.5089 h 15.62794 q 0,6.67498 2.59583,9.69462 2.59583,3.01964 8.47617,3.01964 8.15832,0 8.15832,-8.6351 z"
         id="path1025" />
    </g>
    <g
       aria-label="VAN MAAREN"
       transform="rotate(-26.58054)"
       id="text3686-0"
       style="font-weight:bold;font-size:36.1018px;line-height:1.25;font-family:'Roboto Condensed';-inkscape-font-specification:'Roboto Condensed, Bold';fill:#0072b2;stroke:#0072b2;stroke-width:0.902544">
      <path
         d="m 108.57182,346.15407 4.31882,-18.61499 h 5.78193 l -7.40369,25.66612 h -5.39412 l -7.350805,-25.66612 h 5.746675 z"
         id="path1047" />
      <path
         d="m 132.01683,347.95211 h -7.06876 l -1.37497,5.25309 h -5.48225 l 8.02066,-25.66612 h 4.74189 l 8.07354,25.66612 h -5.53513 z m -5.94057,-4.31882 h 4.79477 l -2.39739,-9.14885 z"
         id="path1049" />
      <path
         d="m 159.26946,353.2052 h -5.18258 l -7.57997,-16.83458 v 16.83458 h -5.18258 v -25.66612 h 5.18258 l 7.5976,16.8522 v -16.8522 h 5.16495 z"
         id="path1051" />
      <path
         d="m 178.51905,327.53908 4.84765,18.5621 4.83003,-18.5621 h 6.76909 v 25.66612 h -5.20021 v -6.94537 l 0.47595,-10.70009 -5.1297,17.64546 h -3.52557 l -5.1297,-17.64546 0.47596,10.70009 v 6.94537 h -5.18259 v -25.66612 z"
         id="path1053" />
      <path
         d="m 211.69464,347.95211 h -7.06876 l -1.37498,5.25309 h -5.48225 l 8.02066,-25.66612 h 4.74189 l 8.07355,25.66612 h -5.53514 z m -5.94058,-4.31882 h 4.79477 l -2.39739,-9.14885 z"
         id="path1055" />
      <path
         d="m 233.25347,347.95211 h -7.06876 l -1.37497,5.25309 h -5.48225 l 8.02066,-25.66612 h 4.74189 l 8.07354,25.66612 h -5.53514 z m -5.94058,-4.31882 h 4.79477 l -2.39738,-9.14885 z"
         id="path1057" />
      <path
         d="m 250.33484,343.82719 h -2.57366 v 9.37801 h -5.18258 v -25.66612 h 8.26745 q 3.89575,0 6.01109,2.0272 2.13297,2.00957 2.13297,5.72904 0,5.11207 -3.71947,7.1569 l 4.49509,10.50619 v 0.24679 h -5.57039 z m -2.57366,-4.31881 h 2.94385 q 1.55125,0 2.32687,-1.02242 0.77563,-1.04004 0.77563,-2.76757 0,-3.86049 -3.01436,-3.86049 h -3.03199 z"
         id="path1059" />
      <path
         d="m 275.80706,342.09967 h -8.07355 v 6.80434 h 9.55429 v 4.30119 h -14.73687 v -25.66612 h 14.70161 v 4.31882 h -9.51903 v 6.06397 h 8.07355 z"
         id="path1061" />
      <path
         d="m 298.21203,353.2052 h -5.18258 l -7.57997,-16.83458 v 16.83458 h -5.18258 v -25.66612 h 5.18258 l 7.5976,16.8522 v -16.8522 h 5.16495 z"
         id="path1063" />
    </g>
    <path
       style="fill:#e54875;fill-opacity:1;stroke:#e54875;stroke-width:0.264583px;stroke-linecap:butt;stroke-linejoin:miter;stroke-opacity:1"
       d="M 804.33332,0 C 1016,285.75 1016,285.75 1016,285.75 H 804.33332 Z"
       id="path7145" />
    <path
       style="fill:#e54875;fill-opacity:1;stroke:#e54875;stroke-width:0.264583px;stroke-linecap:butt;stroke-linejoin:miter;stroke-opacity:1"
       d="M 1862.6667,285.75 C 1651.0001,0 1651.0001,0 1651.0001,0 h 211.6666 z"
       id="path7145-9" />
    <path
       style="fill:#000000;fill-opacity:1;stroke:#000000;stroke-width:0.264583px;stroke-linecap:butt;stroke-linejoin:miter;stroke-opacity:1"
       d="M 804.33332,0 C 1016,0 1016,0 1016,0 v 285.75 z"
       id="path11370" />
    <path
       style="fill:#000000;fill-opacity:1;stroke:#000000;stroke-width:0.264583px;stroke-linecap:butt;stroke-linejoin:miter;stroke-opacity:1"
       d="m 1227.5364,286.01856 c -211.6667,0 -211.6667,0 -211.6667,0 V 0.26855562 Z"
       id="path11370-5" />
    <path
       style="fill:#0072b2;fill-opacity:1;stroke:#0072b2;stroke-width:0.264583px;stroke-linecap:butt;stroke-linejoin:miter;stroke-opacity:1"
       d="m 1016,-5.0000001e-6 c 211.6667,0 211.6667,0 211.6667,0 V 285.75 Z"
       id="path11370-8" />
    <path
       style="fill:#0072b2;fill-opacity:1;stroke:#0072b2;stroke-width:0.264583px;stroke-linecap:butt;stroke-linejoin:miter;stroke-opacity:1"
       d="m 1439.2031,286.01856 c -211.6667,0 -211.6667,0 -211.6667,0 V 0.26855 Z"
       id="path11370-5-9" />
    <path
       style="fill:#0072b2;fill-opacity:1;stroke:#0072b2;stroke-width:0.264583px;stroke-linecap:butt;stroke-linejoin:miter;stroke-opacity:1"
       d="m 1227.7969,-0.268555 c 211.6667,0 211.6667,0 211.6667,0 V 285.48145 Z"
       id="path11370-8-4" />
    <path
       style="fill:#0072b2;fill-opacity:1;stroke:#0072b2;stroke-width:0.264583px;stroke-linecap:butt;stroke-linejoin:miter;stroke-opacity:1"
       d="m 1651,285.75001 c -211.6667,0 -211.6667,0 -211.6667,0 V 0 Z"
       id="path11370-5-9-0" />
    <path
       style="fill:#000000;fill-opacity:1;stroke:#000000;stroke-width:0.264583px;stroke-linecap:butt;stroke-linejoin:miter;stroke-opacity:1"
       d="m 1439.4636,-0.268561 c 211.6667,0 211.6667,0 211.6667,0 V 285.48144 Z"
       id="path11370-7" />
    <path
       style="fill:#000000;fill-opacity:1;stroke:#000000;stroke-width:0.264583px;stroke-linecap:butt;stroke-linejoin:miter;stroke-opacity:1"
       d="M 1862.6667,285.75 C 1651,285.75 1651,285.75 1651,285.75 V -5.0000001e-6 Z"
       id="path11370-5-7" />
    <path
       style="fill:#e54875;fill-opacity:1;stroke:#e54875;stroke-width:0.264583px;stroke-linecap:butt;stroke-linejoin:miter;stroke-opacity:1"
       d="M 1862.6666,0 H 2032 v 285.75 h -169.3334 z"
       id="path31377" />
    <path
       style="display:inline;fill:#e54875;fill-opacity:1;stroke:#e54875;stroke-width:0.264583px;stroke-linecap:butt;stroke-linejoin:miter;stroke-opacity:1"
       d="m 2032,0 c 211.6667,285.75 211.6667,285.75 211.6667,285.75 H 2032 Z"
       id="path7145-3" />
    <path
       style="display:inline;fill:#e54875;fill-opacity:1;stroke:#e54875;stroke-width:0.264583px;stroke-linecap:butt;stroke-linejoin:miter;stroke-opacity:1"
       d="m 3090.4635,285.48145 c -211.6666,-285.75 -211.6666,-285.75 -211.6666,-285.75 h 211.6666 z"
       id="path7145-9-7" />
    <path
       style="display:inline;fill:#e54875;fill-opacity:1;stroke:#e54875;stroke-width:0.264583px;stroke-linecap:butt;stroke-linejoin:miter;stroke-opacity:1"
       d="M 3259.6667,7e-6 C 3471.3333,285.75 3471.3333,285.75 3471.3333,285.75 h -211.6666 z"
       id="path7145-9-7-4" />
    <path
       style="display:inline;fill:#000000;fill-opacity:1;stroke:#000000;stroke-width:0.264583px;stroke-linecap:butt;stroke-linejoin:miter;stroke-opacity:1"
       d="m 2032,0 c 211.6667,0 211.6667,0 211.6667,0 v 285.75 z"
       id="path11370-0" />
    <path
       style="display:inline;fill:#000000;fill-opacity:1;stroke:#000000;stroke-width:0.264583px;stroke-linecap:butt;stroke-linejoin:miter;stroke-opacity:1"
       d="m 2455.2031,286.01856 c -211.6668,0 -211.6668,0 -211.6668,0 V 0.268556 Z"
       id="path11370-5-2" />
    <path
       style="display:inline;fill:#0072b2;fill-opacity:1;stroke:#0072b2;stroke-width:0.264583px;stroke-linecap:butt;stroke-linejoin:miter;stroke-opacity:1"
       d="m 2243.6667,-5e-6 c 211.6666,0 211.6666,0 211.6666,0 V 285.75 Z"
       id="path11370-8-3" />
    <path
       style="display:inline;fill:#0072b2;fill-opacity:1;stroke:#0072b2;stroke-width:0.264583px;stroke-linecap:butt;stroke-linejoin:miter;stroke-opacity:1"
       d="m 2666.9999,285.75001 c -211.6666,0 -211.6666,0 -211.6666,0 V 0 Z"
       id="path11370-5-9-4" />
    <path
       style="display:inline;fill:#0072b2;fill-opacity:1;stroke:#0072b2;stroke-width:0.264583px;stroke-linecap:butt;stroke-linejoin:miter;stroke-opacity:1"
       d="m 2455.5938,-0.537105 c 211.6667,0 211.6667,0 211.6667,0 V 285.2129 Z"
       id="path11370-8-4-0" />
    <path
       style="display:inline;fill:#0072b2;fill-opacity:1;stroke:#0072b2;stroke-width:0.264583px;stroke-linecap:butt;stroke-linejoin:miter;stroke-opacity:1"
       d="m 2878.7969,285.48146 c -211.6667,0 -211.6667,0 -211.6667,0 V -0.26855 Z"
       id="path11370-5-9-0-5" />
    <path
       style="display:inline;fill:#000000;fill-opacity:1;stroke:#000000;stroke-width:0.264583px;stroke-linecap:butt;stroke-linejoin:miter;stroke-opacity:1"
       d="m 2667.2605,-0.537111 c 211.6667,0 211.6667,0 211.6667,0 V 285.21289 Z"
       id="path11370-7-5" />
    <path
       style="display:inline;fill:#000000;fill-opacity:1;stroke:#000000;stroke-width:0.264583px;stroke-linecap:butt;stroke-linejoin:miter;stroke-opacity:1"
       d="m 3090.4635,285.48145 c -211.6666,0 -211.6666,0 -211.6666,0 V -0.268555 Z"
       id="path11370-5-7-0" />
    <path
       style="display:inline;fill:#000000;fill-opacity:1;stroke:#000000;stroke-width:0.264583px;stroke-linecap:butt;stroke-linejoin:miter;stroke-opacity:1"
       d="m 3259.7969,-0.268563 c 211.6667,0 211.6667,0 211.6667,0 V 285.48144 Z"
       id="path11370-7-5-4" />
    <path
       style="display:inline;fill:#e54875;fill-opacity:1;stroke:#e54875;stroke-width:0.264583px;stroke-linecap:butt;stroke-linejoin:miter;stroke-opacity:1"
       d="m 3090.4635,-0.26855 h 169.3334 v 285.75 h -169.3334 z"
       id="path31377-6" />
    <path
       style="fill:#000000;stroke:#000000;stroke-width:0.264583px;stroke-linecap:butt;stroke-linejoin:miter;stroke-opacity:1;fill-opacity:1"
       d="m 3556,0 c -84.6667,0 -84.6667,0 -84.6667,0 V 285.75 H 3556 Z"
       id="path259" />
  </g>
</svg>
