<svg id="Layer_1" data-name="Layer 1" xmlns="http://www.w3.org/2000/svg" viewBox="0 0 977.66 232.85"><defs><style>.cls-1{fill:#fff}</style></defs><path class="cls-1" d="M0 232.85H229.81l11.41-64.79h-2.07l-24.78-.01-9.81.01H79.61l3.43-19.24h125.1l11.41-64.79H94.59l3.07-17.22h132.81l.69.01 27.9-.01.53-2.99L270.83.01H41.02M848.38.01H823.89l-10.55 59.86-.55 3.13-.67 3.81h153.77L977.66.01H848.38zM736.88 84.03h-4.03l-8.02 45.51-1.55 8.78-4.89 27.76-3.81 21.66-7.95 45.11h230.01l11.41-64.79H786.44l3.39-19.24h124.95l11.42-64.79M662.57.01h-67.84l-11.77 66.8h67.84L662.57.01z"/><path class="cls-1" d="M751.75.01h-80.77l-41.02 232.84h68.26l29.25-166.04h67.81L807.05.01h-55.3zM579.93 84.03l-14.81 84.03h-89.91L504.81.01h-67.88l-29.6 168.05h-89.92L347.01.01 310.49 0h-23.72l-7.52.01-14.8 84.02h-36.7l-11.19 64.79h36.41l-14.74 84.03H350.94l.01-.01 44.96.01h225.64l26.21-148.82h-67.83z"/></svg>