<svg id="Layer_1" data-name="Layer 1" xmlns="http://www.w3.org/2000/svg" viewBox="0 0 1043.54 200"><defs><style>.cls-1{fill:#fff}</style></defs><path class="cls-1" d="m553.98 124.71-4.64 26.33H432.51l4.65-26.33 8.63-48.97 4.72-26.77.35-1.97 8.28-47h-52.28l-6.72 38.06-1.92 10.91-4.72 26.77-8.63 48.97-4.65 26.33H263.39l4.65-26.33 8.63-48.97 4.72-26.77.81-4.59h-.02L290 0h-52.29l-6.25 35.43-2.38 13.54-4.72 26.77-8.64 48.97-4.64 26.33-2.69 15.26-5.94 33.7h390.48l5.28-29.92 3.36-19.04 4.64-26.33 8.64-48.97h-52.24l-8.63 48.97z"/><circle class="cls-1" cx="595.32" cy="32.23" r="32.22" transform="rotate(-67.5 595.31 32.228)"/><path class="cls-1" d="M66.02 124.71h90.13l8.63-48.97H74.65l4.72-26.77h124.71L212.71 0H35.27l-6.24 35.36-.06-.01-2.4 13.62-4.72 26.77-8.64 48.97-4.64 26.33-2.67 15.18.06.01L0 200h177.45l8.63-48.96H61.37l4.65-26.33zM910.74 48.97h124.16L1043.54 0H661.61l-.12.66-8.78 48.3v.01h76.59l-4.72 26.77-8.63 48.97-4.65 26.33-1.75 9.93-6.88 39.03h52.29l5.3-30.09.25.04 3.34-18.91 4.64-26.33 8.63-48.97 4.73-26.77h76.07l-4.73 26.77-8.63 48.97-4.64 26.33-8.64 48.96h176.99l8.64-48.96h-124.7l4.64-26.33h91.18l8.64-48.97h-91.19l4.73-26.77h.53z"/></svg>